# xmcd
#
# Track frame offsets: 
#        150
#        14851
#        25418
#        36629
#        52443
#        64197
#        77782
#        90258
#        101804
#        115829
#        131286
#        141348
#        152958
#        165945
#        178355
#        191705
#        206673
#        217243
#        232918
#        248664
#        259175
#        270803
#
# Disc length: 3743 seconds
#
# Revision: 0
# Processed by: cddbd v1.5.2PL0 Copyright (c) Steve Scherf et al.
# Submitted via: ExactAudioCopy v0.99pb5
#
DISCID=490e9d16
DTITLE=Kenny Rogers - Válogatás CD2
DYEAR=2007
DGENRE=Country
TTITLE0=All Gods Lonely Children
TTITLE1=Goodtime Liberator
TTITLE2=Hurry Up Love
TTITLE3=I Found A Reason
TTITLE4=I Just Want To Give My Love To You
TTITLE5=I'm Gonna Sing You A Sad Song Suzy
TTITLE6=Love Woman
TTITLE7=Me And Bobby McGee
TTITLE8=Molly
TTITLE9=My Washigton Woman
TTITLE10=New Design
TTITLE11=Poem For My Little Lady
TTITLE12=Run Thru Your Mind
TTITLE13=Shadow In The Corner Of My Mind
TTITLE14=Sleep Comes Easy
TTITLE15=Tell It All Brother
TTITLE16=Trying Just As Hard
TTITLE17=Tulsa Turn around
TTITLE18=The Way It Used To Be
TTITLE19=We All Got To Help Each Other
TTITLE20=What Am I Gonna Do
TTITLE21=Where Does Rosie Go
EXTD=
EXTT0=
EXTT1=
EXTT2=
EXTT3=
EXTT4=
EXTT5=
EXTT6=
EXTT7=
EXTT8=
EXTT9=
EXTT10=
EXTT11=
EXTT12=
EXTT13=
EXTT14=
EXTT15=
EXTT16=
EXTT17=
EXTT18=
EXTT19=
EXTT20=
EXTT21=
PLAYORDER=
